<svg width="21" height="21" viewBox="0 0 21 21" fill="none" xmlns="http://www.w3.org/2000/svg">
<path d="M7.14 9.3975L9.3975 7.11375L7.9275 5.6175L6.7725 6.7725L5.3025 5.3025L6.43125 4.1475L5.25 2.96625L2.96625 5.25L7.14 9.3975ZM15.75 18.0337L18.0337 15.75L16.8525 14.5687L15.6975 15.6975L14.2275 14.2275L15.3562 13.0725L13.86 11.6025L11.6025 13.86L15.75 18.0337ZM5.5125 19.95H1.05V15.4875L5.64375 10.8937L0 5.25L5.25 0L10.92 5.67L14.8837 1.68C15.0937 1.47 15.33 1.3125 15.5925 1.2075C15.855 1.1025 16.1262 1.05 16.4062 1.05C16.6862 1.05 16.9575 1.1025 17.22 1.2075C17.4825 1.3125 17.7187 1.47 17.9287 1.68L19.32 3.0975C19.53 3.3075 19.6875 3.54375 19.7925 3.80625C19.8975 4.06875 19.95 4.34 19.95 4.62C19.95 4.9 19.8975 5.16687 19.7925 5.42062C19.6875 5.67437 19.53 5.90625 19.32 6.11625L15.3562 10.1062L21 15.75L15.75 21L10.1062 15.3562L5.5125 19.95ZM3.15 17.85H4.62L14.91 7.58625L13.4137 6.09L3.15 16.38V17.85ZM14.175 6.85125L13.4137 6.09L14.91 7.58625L14.175 6.85125Z" fill="url(#paint0_linear_1_93)"/>
<defs>
<linearGradient id="paint0_linear_1_93" x1="10.5" y1="0" x2="10.5" y2="21" gradientUnits="userSpaceOnUse">
<stop stop-color="#FF2F00"/>
<stop offset="1" stop-color="#A91111"/>
</linearGradient>
</defs>
</svg>
