<svg width="61" height="61" viewBox="0 0 61 61" fill="none" xmlns="http://www.w3.org/2000/svg">
<path d="M10.1666 50.8334C8.76873 50.8334 7.57203 50.3357 6.57654 49.3402C5.58106 48.3447 5.08331 47.148 5.08331 45.7501V15.2501C5.08331 13.8522 5.58106 12.6555 6.57654 11.66C7.57203 10.6645 8.76873 10.1667 10.1666 10.1667H50.8333C52.2312 10.1667 53.4279 10.6645 54.4234 11.66C55.4189 12.6555 55.9166 13.8522 55.9166 15.2501V45.7501C55.9166 47.148 55.4189 48.3447 54.4234 49.3402C53.4279 50.3357 52.2312 50.8334 50.8333 50.8334H10.1666ZM30.5 33.0417L10.1666 20.3334V45.7501H50.8333V20.3334L30.5 33.0417ZM30.5 27.9584L50.8333 15.2501H10.1666L30.5 27.9584ZM10.1666 20.3334V15.2501V45.7501V20.3334Z" fill="#F0F0F0"/>
</svg>
