<svg width="106" height="29" viewBox="0 0 106 29" fill="none" xmlns="http://www.w3.org/2000/svg">
<path d="M0 1.184V0.320002H7.712V1.184L5.952 1.344C5.61067 1.38667 5.408 1.472 5.344 1.6C5.28 1.728 5.248 2.16533 5.248 2.912V19.488C5.248 20.2347 5.28 20.672 5.344 20.8C5.408 20.928 5.61067 21.0133 5.952 21.056L7.712 21.248V22.08H0V21.248L1.76 21.056C2.10133 21.0133 2.304 20.928 2.368 20.8C2.432 20.672 2.464 20.2347 2.464 19.488V2.912C2.464 2.16533 2.432 1.728 2.368 1.6C2.304 1.472 2.10133 1.38667 1.76 1.344L0 1.184Z" fill="black"/>
<path d="M17.8853 21.376C19.3146 21.376 20.4666 21.024 21.3413 20.32C22.2373 19.616 22.6853 18.5813 22.6853 17.216C22.6853 16.128 22.3546 15.2213 21.6933 14.496C21.0319 13.7493 19.8799 13.152 18.2373 12.704L16.0293 12.064C14.4079 11.616 13.1706 10.8587 12.3173 9.792C11.4639 8.72533 11.0373 7.424 11.0373 5.888C11.0373 4.864 11.2719 3.904 11.7413 3.008C12.2319 2.112 12.9679 1.38667 13.9493 0.832001C14.9519 0.277334 16.2212 0 17.7572 0C19.4639 0 20.8399 0.32 21.8853 0.960001C22.9306 1.57867 23.6559 2.38933 24.0613 3.392C24.4666 4.39467 24.5626 5.472 24.3493 6.624L21.6613 7.2C21.9386 5.216 21.7359 3.69067 21.0533 2.624C20.3919 1.55733 19.2399 1.024 17.5972 1.024C16.2959 1.024 15.2719 1.376 14.5253 2.08C13.7786 2.76267 13.4053 3.76533 13.4053 5.088C13.4053 6.13333 13.7039 7.02933 14.3013 7.776C14.8986 8.50133 15.9546 9.07733 17.4692 9.504L19.6772 10.144C23.2399 11.1253 25.0213 13.2053 25.0213 16.384C25.0213 17.5147 24.7546 18.5387 24.2213 19.456C23.7093 20.352 22.9199 21.0667 21.8533 21.6C20.8079 22.1333 19.4853 22.4 17.8853 22.4C16.7759 22.4 15.7093 22.2293 14.6853 21.888C13.6826 21.5467 12.8186 20.96 12.0933 20.128C11.3893 19.296 10.9199 18.144 10.6853 16.672L12.6053 16.032C12.7119 17.44 13.0212 18.528 13.5332 19.296C14.0452 20.064 14.6852 20.608 15.4532 20.928C16.2212 21.2267 17.0319 21.376 17.8853 21.376Z" fill="black"/>
<path d="M32.7925 21.248V22.08H26.7125V21.248L28.4405 21.056C28.6752 21.0347 28.8458 21.0027 28.9525 20.96C29.0592 20.896 29.1552 20.768 29.2405 20.576C29.3472 20.3627 29.4752 20 29.6245 19.488L35.8005 0.320002H37.8165L44.0565 19.488C44.2058 20 44.3232 20.3627 44.4085 20.576C44.5152 20.768 44.6218 20.896 44.7285 20.96C44.8352 21.0027 44.9952 21.0347 45.2085 21.056L46.9685 21.248V22.08H39.1925V21.248L40.9525 21.056C41.2938 21.0133 41.4752 20.928 41.4965 20.8C41.5392 20.6507 41.4432 20.2133 41.2085 19.488L39.8965 15.392H32.0885L30.7765 19.488C30.5418 20.2133 30.4352 20.6507 30.4565 20.8C30.4992 20.928 30.6912 21.0133 31.0325 21.056L32.7925 21.248ZM32.4085 14.368H39.5765L35.9925 3.232L32.4085 14.368Z" fill="black"/>
<path d="M63.8237 25.216L64.2718 28.064C62.6078 28.064 61.1251 27.648 59.8237 26.816C58.5224 26.0053 57.4771 24.5333 56.6878 22.4H56.4958C53.7864 22.4 51.7171 21.5147 50.2878 19.744C48.8798 17.952 48.1758 15.4987 48.1758 12.384V9.984C48.1758 6.89067 48.8798 4.45867 50.2878 2.688C51.7171 0.896001 53.7864 0 56.4958 0C59.1624 0 61.2104 0.896001 62.6398 2.688C64.0904 4.45867 64.8158 6.89067 64.8158 9.984V12.384C64.8158 15.2213 64.2077 17.5147 62.9917 19.264C61.7971 20.992 60.0798 22.0053 57.8398 22.304C58.3304 23.4347 59.0451 24.2027 59.9837 24.608C60.9224 25.0133 62.2024 25.216 63.8237 25.216ZM61.7757 8.384C61.7757 5.71733 61.3278 3.82933 60.4318 2.72C59.5358 1.58933 58.2238 1.024 56.4958 1.024C54.7464 1.024 53.4238 1.58933 52.5278 2.72C51.6531 3.82933 51.2158 5.71733 51.2158 8.384V13.984C51.2158 16.6507 51.6531 18.5493 52.5278 19.68C53.4238 20.8107 54.7464 21.376 56.4958 21.376C58.2238 21.376 59.5358 20.8107 60.4318 19.68C61.3278 18.5493 61.7757 16.6507 61.7757 13.984V8.384Z" fill="black"/>
<path d="M81.6468 1.184V0.320002H87.7588V1.184L85.9987 1.344C85.6574 1.38667 85.4547 1.472 85.3907 1.6C85.3267 1.728 85.2948 2.16533 85.2948 2.912V14.688C85.2948 17.12 84.7294 19.0187 83.5987 20.384C82.4894 21.728 80.7828 22.4 78.4788 22.4C75.9614 22.4 74.0308 21.664 72.6868 20.192C71.3641 18.72 70.7028 16.6933 70.7028 14.112V2.912C70.7028 2.16533 70.6708 1.728 70.6068 1.6C70.5428 1.472 70.3401 1.38667 69.9987 1.344L68.2387 1.184V0.320002H75.9508V1.184L74.1908 1.344C73.8494 1.38667 73.6467 1.472 73.5827 1.6C73.5187 1.728 73.4867 2.16533 73.4867 2.912V14.592C73.4867 16.8747 73.9134 18.5707 74.7668 19.68C75.6414 20.7893 76.9641 21.344 78.7347 21.344C80.5267 21.344 81.8708 20.7787 82.7668 19.648C83.6628 18.5173 84.1107 16.8747 84.1107 14.72V2.912C84.1107 2.16533 84.0787 1.728 84.0147 1.6C83.9507 1.472 83.7481 1.38667 83.4068 1.344L81.6468 1.184Z" fill="black"/>
<path d="M104.871 16.864H105.703V22.08H90.375V21.248L92.135 21.056C92.4763 21.0133 92.679 20.928 92.743 20.8C92.807 20.672 92.839 20.2347 92.839 19.488V2.912C92.839 2.16533 92.807 1.728 92.743 1.6C92.679 1.472 92.4763 1.38667 92.135 1.344L90.375 1.184V0.320002H105.287V5.536H104.487L103.559 2.176C103.495 1.92 103.42 1.73867 103.335 1.632C103.271 1.504 103.132 1.42933 102.919 1.408C102.706 1.36533 102.343 1.344 101.831 1.344H95.623V10.592H99.911C100.423 10.592 100.786 10.5813 100.999 10.56C101.212 10.5173 101.351 10.4427 101.415 10.336C101.5 10.208 101.575 10.016 101.639 9.76L102.247 7.36H103.079V14.848H102.247L101.639 12.448C101.575 12.192 101.5 12.0107 101.415 11.904C101.351 11.776 101.212 11.7013 100.999 11.68C100.786 11.6373 100.423 11.616 99.911 11.616H95.623V21.056H102.215C102.727 21.056 103.09 21.0453 103.303 21.024C103.516 20.9813 103.655 20.9067 103.719 20.8C103.804 20.672 103.879 20.48 103.943 20.224L104.871 16.864Z" fill="black"/>
</svg>
