<svg width="53" height="60" viewBox="0 0 53 60" fill="none" xmlns="http://www.w3.org/2000/svg">
<g clip-path="url(#clip0_1_103)">
<path d="M38.2594 60.2112C33.6587 60.2112 29.1132 59.0758 24.6229 56.8049C20.1326 54.5341 16.0472 51.3153 12.3667 47.1487C8.68611 42.982 5.84288 38.357 3.83698 33.2737C1.83108 28.1903 0.828125 23.0445 0.828125 17.8362C0.828125 17.0862 1.04896 16.4612 1.49063 15.9612C1.93229 15.4612 2.48438 15.2112 3.14687 15.2112H12.0906C12.6059 15.2112 13.066 15.4091 13.4708 15.8049C13.8757 16.2008 14.1149 16.6695 14.1885 17.2112L15.624 25.9612C15.6976 26.6278 15.6792 27.1903 15.5687 27.6487C15.4583 28.107 15.2559 28.5028 14.9615 28.8362L9.60625 34.9612C10.3424 36.5028 11.2165 37.9924 12.2286 39.4299C13.2408 40.8674 14.3542 42.2528 15.5687 43.5862C16.7097 44.8778 17.9059 46.0758 19.1573 47.1799C20.4087 48.2841 21.7337 49.2945 23.1323 50.2112L28.3219 44.3362C28.6531 43.9612 29.0856 43.6799 29.6193 43.4924C30.153 43.3049 30.6774 43.2528 31.1927 43.3362L38.8115 45.0862C39.3267 45.2528 39.75 45.5549 40.0812 45.9924C40.4125 46.4299 40.5781 46.9195 40.5781 47.4612V57.5862C40.5781 58.3362 40.3573 58.9612 39.9156 59.4612C39.474 59.9612 38.9219 60.2112 38.2594 60.2112ZM7.50833 30.2112L11.1521 26.0862L10.2135 20.2112H5.3C5.48403 21.9195 5.74167 23.607 6.07292 25.2737C6.40417 26.9403 6.88264 28.5862 7.50833 30.2112ZM27.2729 52.5862C28.7083 53.2945 30.1714 53.857 31.662 54.2737C33.1526 54.6903 34.6524 54.9612 36.1615 55.0862V49.5862L30.9719 48.3987L27.2729 52.5862Z" fill="#E8EAED"/>
</g>
<defs>
<clipPath id="clip0_1_103">
<rect width="53" height="60" fill="white"/>
</clipPath>
</defs>
</svg>
